# xmcd CD database file
#
# Track frame offsets:
#	150
#	23863
#	52641
#	78092
#	95775
#	116411
#	151180
#	176092
#
# Disc length: 2869 seconds
#
# Revision: 0
# Processed by: cddbd v1.5.2PL0 Copyright (c) Steve Scherf et al.
# Submitted via: CDex 1.51
#
DISCID=520b3308
DTITLE=James Carter - The Music of Don Byas Featuring James Carter
DYEAR=2006
DGENRE=Jazz
TTITLE0=James Carter - Living My Life
TTITLE1=James Carter - Free and Easy
TTITLE2=James Carter - Worried and Blue
TTITLE3=James Carter - 1944 Stomp
TTITLE4=James Carter - Savoy Jam Party
TTITLE5=James Carter - Byas a Drink
TTITLE6=James Carter - Laura (Johnny Mercer)
TTITLE7=James Carter - Cherokee (Ray Noble)
EXTD=YEAR: 2006
EXTT0=
EXTT1=
EXTT2=
EXTT3=
EXTT4=
EXTT5=
EXTT6=
EXTT7=
PLAYORDER=
